<svg xmlns="http://www.w3.org/2000/svg" width="84" height="60" viewBox="0 0 84 60" fill="none">
  <rect width="84" height="60" rx="8" fill="#0A2F6B"/>
  <rect width="38" height="28" rx="6" fill="#1B3E8A"/>
  <path d="M0 4l11 7.5V0h16v11.5L38 4v5.2L28.8 14 38 18.8V24l-11-7.5V28H11V16.5L0 24v-5.2L9.2 14 0 9.2V4z" fill="#fff"/>
  <path d="M0 6.5l8.5 5.8H11V0h16v12.3h2.5L38 6.5v2.8l-8.8 4.7L38 18.7v2.8l-8.5-5.8H27V28H11V15.7H8.5L0 21.5v-2.8l8.8-4.7L0 9.3V6.5z" fill="#C8102E"/>
  <circle cx="58" cy="18" r="4" fill="#fff"/>
  <circle cx="67" cy="28" r="3" fill="#fff"/>
  <circle cx="55" cy="35" r="3.4" fill="#fff"/>
  <circle cx="66" cy="44" r="4" fill="#fff"/>
</svg>
